<svg width="43" height="31" viewBox="0 0 43 31" fill="none" xmlns="http://www.w3.org/2000/svg">
<path d="M41.0455 13.5625V7.75H39.0909V3.875H37.1364V1.9375H33.2273V0H27.3636V1.9375H15.6364V0H9.77273V1.9375H5.86364V3.875H3.90909V7.75H1.95455V13.5625H0V27.125H3.90909V29.0625H7.81818V31H11.7273V27.125H9.77273V25.1875H13.6818V27.125H15.6364V29.0625H27.3636V27.125H29.3182V25.1875H33.2273V27.125H31.2727V31H35.1818V29.0625H39.0909V27.125H43V13.5625H41.0455ZM15.6364 21.3125H11.7273V19.375H9.77273V15.5H11.7273V13.5625H15.6364V15.5H17.5909V19.375H15.6364V21.3125ZM33.2273 19.375H31.2727V21.3125H27.3636V19.375H25.4091V15.5H27.3636V13.5625H31.2727V15.5H33.2273V19.375Z" fill="#F4F4F4"/>
</svg>
