<svg width="43" height="31" viewBox="0 0 43 31" fill="none" xmlns="http://www.w3.org/2000/svg">
<path d="M39.0909 1.9375V0H3.90909V1.9375H0V29.0625H1.95455V31H41.0455V29.0625H43V1.9375H39.0909ZM17.5909 15.5V13.5625H15.6364V11.625H13.6818V9.6875H11.7273V7.75H9.77273V5.8125H7.81818V3.875H35.1818V5.8125H33.2273V7.75H31.2727V9.6875H29.3182V11.625H27.3636V13.5625H25.4091V15.5H23.4545V17.4375H19.5455V15.5H17.5909ZM5.86364 5.8125V7.75H7.81818V9.6875H9.77273V11.625H11.7273V13.5625H13.6818V15.5H15.6364V17.4375H17.5909V19.375H19.5455V21.3125H23.4545V19.375H25.4091V17.4375H27.3636V15.5H29.3182V13.5625H31.2727V11.625H33.2273V9.6875H35.1818V7.75H37.1364V5.8125H39.0909V27.125H3.90909V5.8125H5.86364Z" fill="#F4F4F4"/>
</svg>
