<svg width="43" height="43" viewBox="0 0 43 43" fill="none" xmlns="http://www.w3.org/2000/svg">
<path d="M43 15.6364V27.3636H41.0455V31.2727H39.0909V35.1818H37.1364V37.1364H35.1818V39.0909H33.2273V41.0455H29.3182V43H27.3636V33.2273H25.4091V31.2727H27.3636V29.3182H31.2727V27.3636H33.2273V25.4091H35.1818V15.6364H33.2273V9.77273H29.3182V11.7273H27.3636V13.6818H25.4091V11.7273H17.5909V13.6818H15.6364V11.7273H13.6818V9.77273H9.77273V15.6364H7.81818V25.4091H9.77273V27.3636H11.7273V29.3182H15.6364V33.2273H11.7273V31.2727H9.77273V29.3182H5.86364V31.2727H7.81818V35.1818H9.77273V37.1364H15.6364V43H13.6818V41.0455H9.77273V39.0909H7.81818V37.1364H5.86364V35.1818H3.90909V31.2727H1.95455V27.3636H0V15.6364H1.95455V11.7273H3.90909V7.81818H5.86364V5.86364H7.81818V3.90909H11.7273V1.95455H15.6364V0H27.3636V1.95455H31.2727V3.90909H35.1818V5.86364H37.1364V7.81818H39.0909V11.7273H41.0455V15.6364H43Z" fill="#F4F4F4"/>
</svg>
