<svg width="14" height="13" viewBox="0 0 14 13" fill="none" xmlns="http://www.w3.org/2000/svg">
<path d="M10.8182 1.3V0H3.18182V1.3H0V4.55H0.636364V5.85H1.27273V6.5H1.90909V7.15H2.54545V7.8H3.18182V8.45H5.09091V9.1H6.36364V11.05H3.81818V13H10.1818V11.05H7.63636V9.1H8.90909V8.45H10.8182V7.8H11.4545V7.15H12.0909V6.5H12.7273V5.85H13.3636V4.55H14V1.3H10.8182ZM2.54545 6.5V5.85H1.90909V4.55H1.27273V2.6H2.54545V3.25H3.18182V4.55H3.81818V6.5H4.45455V7.15H3.18182V6.5H2.54545ZM12.7273 4.55H12.0909V5.85H11.4545V6.5H10.8182V7.15H9.54545V6.5H10.1818V5.2H10.8182V3.25H11.4545V2.6H12.7273V4.55Z" fill="#F4F4F4"/>
</svg>
