<svg width="43" height="43" viewBox="0 0 43 43" fill="none" xmlns="http://www.w3.org/2000/svg">
<path d="M31.2727 15.6364V13.6818H29.3182V11.7273H27.3636V9.77274H15.6363V11.7273H13.6818V13.6818H11.7273V15.6364H9.77271V27.3636H11.7273V29.3182H13.6818V31.2727H15.6363V33.2273H27.3636V31.2727H29.3182V29.3182H31.2727V27.3636H33.2273V15.6364H31.2727ZM29.3182 25.4091H27.3636V27.3636H25.4091V29.3182H17.5909V27.3636H15.6363V25.4091H13.6818V17.5909H15.6363V15.6364H17.5909V13.6818H25.4091V15.6364H27.3636V17.5909H29.3182V25.4091Z" fill="#F4F4F4"/>
<path d="M41.0455 7.81818V3.90909H39.0909V1.95455H35.1818V0H7.81818V1.95455H3.90909V3.90909H1.95455V7.81818H0V35.1818H1.95455V39.0909H3.90909V41.0455H7.81818V43H35.1818V41.0455H39.0909V39.0909H41.0455V35.1818H43V7.81818H41.0455ZM39.0909 35.1818H37.1364V37.1364H35.1818V39.0909H7.81818V37.1364H5.86364V35.1818H3.90909V7.81818H5.86364V5.86364H7.81818V3.90909H35.1818V5.86364H37.1364V7.81818H39.0909V35.1818Z" fill="#F4F4F4"/>
<path d="M35.1818 7.81818H31.2727V11.7273H35.1818V7.81818Z" fill="#F4F4F4"/>
</svg>
