<svg width="18" height="20" viewBox="0 0 18 20" fill="none" xmlns="http://www.w3.org/2000/svg">
<path d="M17.1 14.5455V15.4545H15.3V16.3636H11.7V15.4545H9.9V14.5455H8.1V13.6364H7.2V11.8182H6.3V10H5.4V6.36364H6.3V4.54545H7.2V2.72727H8.1V1.81818H9.9V0.909091H11.7V0H7.2V0.909091H5.4V1.81818H3.6V2.72727H2.7V3.63636H1.8V5.45455H0.9V7.27273H0V12.7273H0.9V14.5455H1.8V16.3636H2.7V17.2727H3.6V18.1818H5.4V19.0909H7.2V20H12.6V19.0909H14.4V18.1818H16.2V17.2727H17.1V16.3636H18V14.5455H17.1ZM5.4 17.2727V16.3636H3.6V14.5455H2.7V12.7273H1.8V7.27273H2.7V5.45455H3.6V3.63636H5.4V4.54545H4.5V6.36364H3.6V10H4.5V11.8182H5.4V13.6364H6.3V14.5455H7.2V15.4545H8.1V16.3636H9.9V17.2727H11.7V18.1818H7.2V17.2727H5.4Z" fill="#151515"/>
</svg>
