<svg width="43" height="37" viewBox="0 0 43 37" fill="none" xmlns="http://www.w3.org/2000/svg">
<path d="M40.9524 4.11111V6.16667H43V8.22222H40.9524V18.5H38.9048V22.6111H36.8571V26.7222H34.8095V28.7778H32.7619V30.8333H30.7143V32.8889H26.619V34.9444H20.4762V37H6.14286V34.9444H2.04762V32.8889H0V30.8333H4.09524V32.8889H10.2381V30.8333H12.2857V28.7778H8.19048V26.7222H6.14286V24.6667H4.09524V22.6111H8.19048V20.5556H4.09524V18.5H2.04762V14.3889H6.14286V12.3333H4.09524V10.2778H2.04762V2.05556H4.09524V4.11111H6.14286V6.16667H8.19048V8.22222H12.2857V10.2778H18.4286V12.3333H22.5238V4.11111H24.5714V2.05556H26.619V0H36.8571V2.05556H43V4.11111H40.9524Z" fill="#F4F4F4"/>
</svg>
